# xmcd
#
# Track frame offsets: 
#        150
#        8170
#        20202
#        31318
#        47969
#        61832
#        75185
#        87087
#        115055
#        127067
#        140066
#        152841
#        170648
#        187775
#
# Disc length: 2700 seconds
#
# Revision: 2
# Processed by: cddbd v1.5.1PL2 Copyright (c) Steve Scherf et al.
# Submitted via: ExactAudioCopy v0.95b3
#
DISCID=b10a8a0e
DTITLE=The Wilders - Throw Down
DYEAR=1900
DGENRE=Country
TTITLE0=Hawk's Got a Chicken and Flew in the Woods
TTITLE1=Honky Tonk Habit
TTITLE2=It'll Never be Thru with Us (Until it's Thru with You)
TTITLE3=Won't You Sometimes Think of Me
TTITLE4=Squirrel Hunters
TTITLE5=Belshazzar
TTITLE6=Jenny on the Road
TTITLE7=Together Apart
TTITLE8=The Blues Come Around
TTITLE9=Goat Creek
TTITLE10=Drivin' Nails in My Coffin
TTITLE11=When I Get to Heaven
TTITLE12=When the Levee's Gone
TTITLE13=January Waltz
EXTD=
EXTT0=
EXTT1=
EXTT2=
EXTT3=
EXTT4=
EXTT5=
EXTT6=
EXTT7=
EXTT8=
EXTT9=
EXTT10=
EXTT11=
EXTT12=
EXTT13=
PLAYORDER=
